# xmcd CD database file
#
# Track frame offsets:
#	150
#	24827
#	52740
#	75102
#	98137
#	116102
#	138917
#	177220
#	211640
#	229955
#
# Disc length: 3449 seconds
#
# Revision: 4
# Processed by: cddbd v1.5.1PL2 Copyright (c) Steve Scherf et al.
# Submitted via: CDex 1.51
#
DISCID=6c0d770a
DTITLE=Janis Joplin - Janis Joplin Live At Woodstock
DYEAR=1969
DGENRE=Blues-Rock
TTITLE0=Raise Your Hand
TTITLE1=As Good As You've Been To This World
TTITLE2=To Love Somebody
TTITLE3=Summertime
TTITLE4=Try (Just A Little Bit Harder)
TTITLE5=Cozmic Blues
TTITLE6=Can Turn You Loose
TTITLE7=Work Me Lord
TTITLE8=Piece Of My Heart
TTITLE9=Ball And Chain
EXTD=YEAR: 1969
EXTT0=
EXTT1=
EXTT2=
EXTT3=
EXTT4=
EXTT5=
EXTT6=
EXTT7=
EXTT8=
EXTT9=
PLAYORDER=
